<mxfile host="65bd71144e">
    <diagram id="OgrmJrzLHcylm4Brw9E_" name="Page-1">
        <mxGraphModel dx="1074" dy="717" grid="1" gridSize="10" guides="1" tooltips="1" connect="1" arrows="1" fold="1" page="1" pageScale="1" pageWidth="827" pageHeight="1169" math="0" shadow="0">
            <root>
                <mxCell id="0"/>
                <mxCell id="1" parent="0"/>
                <mxCell id="4" style="edgeStyle=none;html=1;exitX=0.5;exitY=1;exitDx=0;exitDy=0;entryX=0.5;entryY=0;entryDx=0;entryDy=0;" edge="1" parent="1" source="2" target="3">
                    <mxGeometry relative="1" as="geometry"/>
                </mxCell>
                <mxCell id="7" style="edgeStyle=none;html=1;exitX=0.5;exitY=1;exitDx=0;exitDy=0;entryX=0.5;entryY=0;entryDx=0;entryDy=0;rounded=0;" edge="1" parent="1" source="2" target="6">
                    <mxGeometry relative="1" as="geometry">
                        <Array as="points">
                            <mxPoint x="380" y="140"/>
                            <mxPoint x="220" y="140"/>
                        </Array>
                    </mxGeometry>
                </mxCell>
                <mxCell id="8" style="edgeStyle=none;rounded=0;html=1;exitX=0.5;exitY=1;exitDx=0;exitDy=0;entryX=0.5;entryY=0;entryDx=0;entryDy=0;" edge="1" parent="1" source="2" target="5">
                    <mxGeometry relative="1" as="geometry">
                        <Array as="points">
                            <mxPoint x="380" y="140"/>
                            <mxPoint x="540" y="140"/>
                        </Array>
                    </mxGeometry>
                </mxCell>
                <mxCell id="2" value="Program Name" style="rounded=0;whiteSpace=wrap;html=1;" vertex="1" parent="1">
                    <mxGeometry x="320" y="60" width="120" height="60" as="geometry"/>
                </mxCell>
                <mxCell id="13" style="edgeStyle=none;rounded=0;html=1;exitX=0.5;exitY=1;exitDx=0;exitDy=0;entryX=0.5;entryY=0;entryDx=0;entryDy=0;" edge="1" parent="1" source="3" target="11">
                    <mxGeometry relative="1" as="geometry"/>
                </mxCell>
                <mxCell id="3" value="Process" style="rounded=0;whiteSpace=wrap;html=1;" vertex="1" parent="1">
                    <mxGeometry x="320" y="160" width="120" height="60" as="geometry"/>
                </mxCell>
                <mxCell id="14" style="edgeStyle=none;rounded=0;html=1;exitX=0.5;exitY=1;exitDx=0;exitDy=0;entryX=0.5;entryY=0;entryDx=0;entryDy=0;" edge="1" parent="1" source="5" target="12">
                    <mxGeometry relative="1" as="geometry"/>
                </mxCell>
                <mxCell id="5" value="Output" style="rounded=0;whiteSpace=wrap;html=1;" vertex="1" parent="1">
                    <mxGeometry x="480" y="160" width="120" height="60" as="geometry"/>
                </mxCell>
                <mxCell id="10" style="edgeStyle=none;rounded=0;html=1;exitX=0.5;exitY=1;exitDx=0;exitDy=0;entryX=0.5;entryY=0;entryDx=0;entryDy=0;" edge="1" parent="1" source="6" target="9">
                    <mxGeometry relative="1" as="geometry"/>
                </mxCell>
                <mxCell id="6" value="Input" style="rounded=0;whiteSpace=wrap;html=1;" vertex="1" parent="1">
                    <mxGeometry x="160" y="160" width="120" height="60" as="geometry"/>
                </mxCell>
                <mxCell id="9" value="Thing" style="rounded=0;whiteSpace=wrap;html=1;" vertex="1" parent="1">
                    <mxGeometry x="160" y="240" width="120" height="60" as="geometry"/>
                </mxCell>
                <mxCell id="11" value="Thing" style="rounded=0;whiteSpace=wrap;html=1;" vertex="1" parent="1">
                    <mxGeometry x="320" y="240" width="120" height="60" as="geometry"/>
                </mxCell>
                <mxCell id="12" value="Thing" style="rounded=0;whiteSpace=wrap;html=1;" vertex="1" parent="1">
                    <mxGeometry x="480" y="240" width="120" height="60" as="geometry"/>
                </mxCell>
            </root>
        </mxGraphModel>
    </diagram>
</mxfile>